# xmcd
#
# Track frame offsets:
#	150
#	15989
#	37525
#	62100
#	88010
#	101958
#	115340
#	131800
#	153417
#	168767
#	182149
#	201876
#	213422
#	233743
#	263217
#	284480
#
# Disc length: 4092 seconds
#
# Revision: 1
# Processed by: cddbd v1.5.2PL0 Copyright (c) Steve Scherf et al.
# Submitted via: audiograbber 1.83.01
#
DISCID=dc0ffa10
DTITLE=Alison Krauss - A Hundred Miles or More- A Collection
DYEAR=1900
DGENRE=
TTITLE0=You're Just a Country Boy
TTITLE1=Simple Love
TTITLE2=Jacob's Dream
TTITLE3=Away Down the River
TTITLE4=Sawing on the Strings
TTITLE5=Down to the River to Pray
TTITLE6=Baby Mine
TTITLE7=Molly Bán (Bawn)
TTITLE8=How's the World Treating You (Duet With James Taylor)
TTITLE9=The Scarlet Tide
TTITLE10=Whiskey Lullaby (Duet With Brad Paisley)
TTITLE11=You Will Be My Ain True Love
TTITLE12=I Give You to His Heart
TTITLE13=Get Me Through December
TTITLE14=Missing You (Duet With John Waite)
TTITLE15=Lay Down Beside Me (Previously Unrealsed Duet With John Waite)
EXTD=
EXTT0=
EXTT1=
EXTT2=
EXTT3=
EXTT4=
EXTT5=
EXTT6=
EXTT7=
EXTT8=
EXTT9=
EXTT10=
EXTT11=
EXTT12=
EXTT13=
EXTT14=
EXTT15=
PLAYORDER=
